<?xml version="1.0" standalone="no"?>
<!DOCTYPE svg PUBLIC "-//W3C//DTD SVG 20010904//EN"
 "http://www.w3.org/TR/2001/REC-SVG-20010904/DTD/svg10.dtd">
<svg version="1.0" xmlns="http://www.w3.org/2000/svg"
 width="700.000000pt" height="700.000000pt" viewBox="0 0 700.000000 700.000000"
 preserveAspectRatio="xMidYMid meet">
<metadata>
Created by potrace 1.14, written by Peter Selinger 2001-2017
</metadata>
<g transform="translate(0.000000,700.000000) scale(0.100000,-0.100000)"
fill="#000000" stroke="none">
<path d="M0 3500 l0 -3500 3500 0 3500 0 0 3500 0 3500 -3500 0 -3500 0 0
-3500z m2339 1095 c292 -69 461 -331 462 -715 1 -289 -103 -467 -377 -641 -54
-35 -83 -59 -81 -69 2 -8 118 -186 257 -395 l253 -380 -273 -3 c-182 -1 -277
1 -284 8 -6 6 -173 264 -372 573 l-362 562 252 5 c228 5 256 8 307 28 124 49
190 145 197 287 8 156 -42 253 -162 315 l-69 35 -480 5 -481 5 -122 190 c-67
105 -123 193 -123 198 -1 4 313 7 697 7 588 0 707 -3 761 -15z m2171 -200 l0
-215 -265 0 -265 0 0 -588 0 -589 -242 -161 -243 -162 -3 750 -2 750 -265 0
-265 0 0 23 c0 41 -39 180 -69 242 -15 33 -44 81 -64 108 -21 26 -37 49 -37
52 0 3 387 5 860 5 l860 0 0 -215z m1189 180 c207 -49 366 -218 433 -461 18
-66 22 -106 22 -244 0 -152 -2 -172 -28 -255 -75 -245 -217 -392 -437 -451
-42 -11 -104 -17 -181 -18 l-118 -1 0 -367 0 -368 -250 0 -250 0 0 554 0 554
268 4 c296 5 316 9 404 73 128 93 155 333 55 474 -24 33 -52 56 -102 81 l-68
35 -403 3 -404 3 0 199 0 200 498 0 c408 0 509 -3 561 -15z m-1719 -1940 l0
-245 -242 2 -243 3 -3 80 -2 80 242 162 c134 89 244 162 246 162 1 1 2 -109 2
-244z"/>
</g>
</svg>
